<svg width="981" height="748" viewBox="0 0 981 748" fill="none" xmlns="http://www.w3.org/2000/svg">
<g clip-path="url(#clip0)">
<path d="M969.796 610.511C959.757 533.333 998.067 452.061 971.402 378.939C962.929 355.73 948.432 335.291 936.626 313.567C918.796 280.801 906.99 244.742 901.93 207.8C898.637 183.627 898.196 158.972 892.694 135.201C877.515 69.1864 820.451 14.8572 753.831 2.85097C700.1 -6.82629 644.724 9.23555 595.892 33.6094C547.061 57.9832 502.768 90.5085 455.061 117.051C404.302 145.279 349.689 166.601 293.268 180.254C272.346 185.313 250.902 189.449 231.707 199.207C184.081 223.501 160.026 277.107 142.919 327.742C125.812 378.377 110.392 432.907 70.7971 468.845C60.1956 478.482 48.1083 486.473 38.2698 496.913C5.90306 531.205 4.4574 586.338 23.2911 629.584C40.4382 668.936 80.5954 722.02 119.99 741.896C121.395 742.619 122.841 743.262 124.286 743.904H235.843C256.926 740.009 277.125 735.793 294.071 734.147C360.451 727.722 427.313 733.745 493.893 737.6C629.383 745.47 765.195 744.346 900.886 743.262C920.764 743.101 942.168 742.418 957.909 730.292C974.655 717.362 980.478 694.353 979.634 673.192C978.831 652.03 972.527 631.512 969.796 610.511Z" fill="#E2FAFA"/>
<path d="M880.848 486.794C874.463 487.597 864.705 500.648 863.54 501.973C862.897 502.695 862.215 503.499 861.532 504.302L865.789 509.562L858.761 507.835C846.995 523.817 842.096 544.577 845.63 564.172C846.072 566.702 846.634 569.031 847.196 571.279C848.039 574.853 848.842 578.226 848.722 580.515C848.481 584.812 844.746 590.313 840.811 596.175C835.149 604.527 828.121 614.928 827.158 628.259C826.435 638.097 829.286 646.85 831.575 653.878C833.141 658.696 834.627 663.193 834.426 666.406C834.225 669.939 831.856 674.597 829.326 679.496C827.639 682.829 825.672 686.604 824.106 690.699C817.721 707.082 817.962 725.794 824.708 741.977L855.95 728.927C852.577 720.855 852.457 711.138 855.629 702.987C856.593 700.497 857.998 697.767 859.484 694.875C863.098 687.768 867.596 678.974 868.238 668.333C868.801 658.736 866.11 650.545 863.741 643.317C862.175 638.458 860.649 633.881 860.89 630.668C861.211 626.372 864.905 620.87 868.841 615.088C873.901 607.579 880.085 598.424 881.972 587.06C875.868 589.63 865.427 594.087 863.982 595.171C862.456 596.376 875.748 585.454 882.534 579.832C882.494 573.568 881.169 567.947 880.045 563.329C879.603 561.442 879.161 559.675 878.88 558.069C876.872 547.026 880.085 534.779 887.273 526.146C887.755 525.543 888.317 524.901 888.919 524.218C891.57 521.207 894.863 517.432 897.272 512.212C897.874 510.887 898.396 509.562 898.838 508.237C902.573 496.712 892.895 485.268 880.848 486.794Z" fill="#9CDEDC"/>
<path d="M942.007 538.875C936.626 537.67 924.94 545.3 923.655 546.022C922.852 546.464 922.009 546.946 921.085 547.468C915.503 550.72 910.524 554.856 906.227 559.635L911.488 572.565L903.135 563.369C896.991 571.4 892.734 580.836 891.048 590.835C890.686 593.003 890.445 595.051 890.205 597.019C889.843 600.151 889.522 603.082 888.719 604.929C887.273 608.302 882.655 611.675 877.756 615.209C870.768 620.308 862.054 626.613 857.396 637.013C853.943 644.722 853.661 652.593 853.461 658.937C853.3 663.274 853.18 667.329 852.095 669.859C850.891 672.63 847.638 675.682 844.144 678.934C841.815 681.143 839.125 683.592 836.675 686.403C826.756 697.726 821.455 712.825 822.178 727.883L851.132 726.517C850.77 719.008 853.501 711.178 858.44 705.557C859.966 703.83 861.854 702.023 863.902 700.136C868.881 695.478 875.105 689.696 878.679 681.343C881.932 673.794 882.173 666.406 882.374 659.901C882.534 655.524 882.655 651.388 883.779 648.898C885.305 645.525 889.883 642.193 894.742 638.659C901.85 633.479 910.725 627.054 915.303 616.333C915.584 615.65 915.865 615.008 916.106 614.325H903.537L917.752 608.904C918.435 605.813 918.756 602.921 919.037 600.351C919.238 598.705 919.399 597.139 919.64 595.774C921.246 586.297 927.43 577.383 935.743 572.524C936.305 572.203 936.947 571.842 937.63 571.48C940.642 569.834 944.417 567.746 947.87 564.252C948.754 563.369 949.557 562.446 950.28 561.482C950.52 561.161 950.761 560.799 951.002 560.438L940.361 557.707L953.171 554.334C953.813 547.508 949.436 540.561 942.007 538.875Z" fill="#74BDC1"/>
<path d="M956.223 608.021C952.368 606.254 942.369 610.19 941.284 610.551C940.602 610.752 939.879 610.993 939.156 611.234C925.864 615.691 914.901 626.171 909.801 639.221C909.199 640.787 908.677 642.313 908.195 643.759C907.432 646.048 906.709 648.216 905.866 649.461C904.26 651.79 900.244 653.597 896.027 655.484C889.964 658.214 882.454 661.628 877.314 668.735C873.499 673.995 872.094 679.898 870.969 684.636C870.206 687.848 869.443 690.9 868.239 692.667C866.913 694.554 863.982 696.361 860.85 698.249C858.761 699.533 856.352 700.979 854.063 702.706C844.827 709.693 838.482 720.213 836.715 731.657L858.721 735.11C859.605 729.408 862.898 723.948 867.516 720.494C868.921 719.45 870.648 718.366 872.455 717.282C876.912 714.551 882.494 711.178 886.51 705.436C890.124 700.256 891.449 694.755 892.654 689.856C893.457 686.604 894.18 683.512 895.425 681.785C897.071 679.496 901.047 677.689 905.263 675.802C911.407 673.031 919.118 669.538 924.218 662.19C925.422 660.423 926.386 658.656 927.149 656.889L919.439 653.918L929.036 651.87C929.157 651.468 929.318 651.067 929.438 650.706C929.84 649.501 930.201 648.336 930.603 647.333C933.293 640.426 939.317 634.684 946.344 632.355C946.826 632.194 947.348 632.034 947.951 631.833C950.48 631.07 953.653 630.066 956.785 628.018C957.588 627.496 958.351 626.934 959.034 626.332C964.977 621.112 963.491 611.354 956.223 608.021Z" fill="#8FD0D6"/>
<path opacity="0.5" d="M514.133 269.759C510.92 264.619 506.021 260.764 501.041 257.271C475.421 239.362 444.902 228.56 413.74 226.351C406.391 225.829 397.355 224.625 394.866 217.678C392.577 211.334 397.998 204.588 404.142 201.697C410.246 198.846 417.273 198.203 423.257 195.031C429.24 191.899 434.059 184.47 430.927 178.487C429.039 174.873 424.984 173.106 421.128 171.741C396.994 163.269 371.494 162.907 345.834 165.116C328.566 170.898 311.017 175.917 293.308 180.214C272.386 185.273 250.942 189.409 231.747 199.167C230.061 200.05 228.374 200.934 226.727 201.897C242.429 205.27 258.331 207.921 274.274 209.808C280.94 210.611 288.971 212.257 291.22 218.602C293.148 224.023 289.574 230.166 291.26 235.667C293.509 242.975 302.946 244.582 310.576 244.903C318.206 245.184 327.683 246.79 329.931 254.058C330.935 257.311 330.092 260.884 328.406 263.856C324.028 271.525 314.752 275.099 305.958 275.942C297.163 276.786 288.248 275.541 279.454 276.344C258.733 278.231 238.574 291.402 218.455 285.981C209.5 283.572 201.951 277.669 193.517 273.734C185.446 269.959 176.852 268.072 168.018 267.269C162.476 277.669 157.617 288.551 153.2 299.593C171.15 299.152 190.225 299.031 205.524 308.468C209.982 311.198 213.958 314.692 218.495 317.342C224.318 320.755 230.984 322.642 237.69 323.325C264.074 325.975 288.449 310.516 313.989 303.488C349.327 293.731 387.155 300.316 422.293 310.797C436.348 314.973 450.363 319.831 465.02 320.996C479.638 322.16 495.299 319.189 506.262 309.472C517.225 299.714 521.883 282.207 514.133 269.759Z" fill="white"/>
<path d="M745.157 718.687C745.157 718.687 687.21 668.896 624.806 703.83C624.806 703.83 624.806 640.667 578.745 634.001C532.685 627.336 491.805 663.716 502.206 703.107C502.206 703.107 406.351 684.516 388.521 729.85L745.117 732.822V718.687H745.157Z" fill="#74BDC1"/>
<path d="M903.537 741.455C867.516 672.871 801.417 703.951 801.417 703.951C801.417 703.951 790.052 640.787 705.682 659.058C705.682 659.058 670.143 669.418 665.204 712.825C665.204 712.825 615.851 695.076 606.494 743.904L903.537 741.455Z" fill="#9DE0DE"/>
<path d="M286.682 300.156C286.682 300.156 279.293 304.332 277.044 310.275C275.157 315.334 266.684 314.451 261.383 321.197C255.52 328.706 247.167 339.909 266.322 347.458C278.209 352.156 297.203 355.77 301.5 352.598C305.797 349.425 316.037 350.71 313.748 317.382C313.748 317.382 285.718 305.697 285.437 305.617C285.156 305.536 286.682 300.156 286.682 300.156Z" fill="#333333"/>
<path d="M313.788 314.37C313.788 323.887 306.078 331.597 296.561 331.597C287.044 331.597 279.333 323.887 279.333 314.37C279.333 304.854 287.044 297.144 296.561 297.144C306.038 297.144 313.788 304.854 313.788 314.37Z" fill="#333333"/>
<path d="M359.969 366.451L358.724 367.053C353.383 368.338 322.824 375.606 321.418 374.683C319.892 373.679 312.985 359.424 312.985 359.424L305.154 372.193C305.154 372.193 312.222 385.605 316.84 387.733C321.338 389.821 353.022 378.297 361.937 372.876L362.82 372.474C363.704 372.675 365.952 372.996 365.952 372.996C375.068 374.04 374.104 374.08 374.185 373.719C374.265 373.358 370.571 371.791 370.811 371.43C371.012 371.069 376.393 371.43 376.112 370.988C375.871 370.547 370.932 369.543 371.012 369.222C371.093 368.9 376.273 369.342 376.273 368.579C376.273 367.816 370.611 367.575 370.811 366.973C371.012 366.371 376.835 366.812 376.715 366.13C376.634 365.568 370.129 364.885 368.081 364.684C367.8 364.644 367.679 364.323 367.84 364.082C370.209 360.548 370.209 360.147 369.767 359.906C369.446 359.745 366.474 362.034 363.543 363.961L359.969 366.451Z" fill="#FFC0BB"/>
<path d="M216.126 426.402H411.169C419.281 426.402 425.827 432.947 425.827 441.058V725.554C425.827 733.665 419.281 740.21 411.169 740.21H216.126C208.014 740.21 201.469 733.665 201.469 725.554V441.058C201.469 432.947 208.014 426.402 216.126 426.402Z" fill="#E03268"/>
<path d="M409.282 441.379H217.973V708.97H409.282V441.379Z" fill="#F3FCFF"/>
<path d="M361.375 448.286H257.769V436.4C257.769 425.518 266.604 416.684 277.486 416.684H341.617C352.5 416.684 361.334 425.518 361.334 436.4V448.286H361.375Z" fill="#CFE4FF"/>
<path d="M332.622 472.178H231.988V479.647H332.622V472.178Z" fill="#CFE4FF"/>
<path d="M332.622 499.604H231.988V507.072H332.622V499.604Z" fill="#CFE4FF"/>
<path d="M332.622 527.029H231.988V534.498H332.622V527.029Z" fill="#CFE4FF"/>
<path d="M332.622 554.455H231.988V561.924H332.622V554.455Z" fill="#CFE4FF"/>
<path d="M332.622 581.88H231.988V589.349H332.622V581.88Z" fill="#CFE4FF"/>
<path d="M332.622 609.266H231.988V616.735H332.622V609.266Z" fill="#CFE4FF"/>
<path d="M332.622 636.691H231.988V644.16H332.622V636.691Z" fill="#CFE4FF"/>
<path d="M332.622 664.117H231.988V671.586H332.622V664.117Z" fill="#CFE4FF"/>
<path d="M412.374 472.178H355.311V526.949H412.374V472.178Z" fill="#CFE4FF"/>
<path d="M412.374 544.496H355.311V599.267H412.374V544.496Z" fill="#CFE4FF"/>
<path d="M412.374 616.815H355.311V671.586H412.374V616.815Z" fill="#CFE4FF"/>
<path d="M347.601 484.265L347.159 495.066L337.762 491.452L339.007 483.702L347.601 484.265Z" fill="#FFC0BB"/>
<path d="M355.391 508.438L333.626 501.21C332.943 500.969 332.582 500.246 332.823 499.604C333.064 498.921 333.787 498.56 334.429 498.801L356.194 506.028C356.877 506.269 357.238 506.992 356.997 507.634C356.757 508.277 356.034 508.638 355.391 508.438Z" fill="#122F5B"/>
<path d="M336.757 491.291L333.705 497.797C333.344 498.6 333.545 499.523 334.147 499.724L355.47 506.831C356.033 507.032 356.675 506.872 357.197 506.309C357.719 505.747 358.121 504.743 357.599 503.097C356.595 499.804 350.652 497.074 348.282 493.781C348.242 493.701 348.162 493.661 348.082 493.62L338.243 490.368C337.761 490.207 337.119 490.569 336.757 491.291Z" fill="#55769F"/>
<path d="M345.432 497.114C345.312 496.953 345.352 496.672 345.512 496.512C346.235 495.709 348.283 493.902 350.813 495.267C350.974 495.347 351.014 495.588 350.894 495.789C350.813 495.99 350.612 496.07 350.492 495.99C348.243 494.785 346.476 496.391 345.874 497.074C345.713 497.235 345.553 497.235 345.432 497.114Z" fill="white"/>
<path d="M347.36 498.72C347.239 498.56 347.279 498.278 347.44 498.118C348.163 497.315 350.211 495.508 352.741 496.873C352.901 496.953 352.942 497.194 352.821 497.395C352.741 497.596 352.54 497.676 352.42 497.596C350.171 496.391 348.404 497.997 347.801 498.68C347.641 498.841 347.48 498.841 347.36 498.72Z" fill="white"/>
<path d="M349.167 500.206C349.046 500.045 349.086 499.764 349.247 499.604C349.97 498.8 352.018 496.993 354.548 498.359C354.709 498.439 354.749 498.68 354.628 498.881C354.548 499.082 354.347 499.162 354.227 499.082C351.978 497.877 350.211 499.483 349.608 500.166C349.408 500.326 349.247 500.326 349.167 500.206Z" fill="white"/>
<path d="M276.402 408.774C276.402 408.774 272.025 429.373 291.903 434.272C311.78 439.171 336.838 439.653 336.838 439.653L337.32 487.638L347.761 488.842C347.761 488.842 378.963 424.193 342.22 411.424L308.608 409.456L294.834 407.609C294.834 407.609 281.06 403.273 280.859 403.915C280.659 404.558 276.723 409.095 276.402 408.774Z" fill="#122F5B"/>
<path d="M299.814 340.752C299.814 340.752 287.566 338.021 281.221 338.222C274.876 338.423 283.51 355.167 283.51 355.167L293.87 355.408C293.87 355.408 300.215 351.192 301.139 351.232C304.632 351.433 301.902 341.394 301.902 341.394L299.814 340.752Z" fill="#FFC0BB"/>
<path d="M287.485 327.581L283.831 338.624C283.831 338.624 287.003 345.169 296.721 342.358C296.721 342.358 295.597 340.069 297.083 335.331C298.649 330.553 287.485 327.581 287.485 327.581Z" fill="#FFC0BB"/>
<path opacity="0.6" d="M287.485 327.581L285.759 332.761C286.762 336.536 290.096 339.106 296.32 339.909C296.32 338.784 296.481 337.299 297.083 335.371C298.649 330.553 287.485 327.581 287.485 327.581Z" fill="#FC8D84"/>
<path d="M309.732 319.47C308.929 321.277 309.451 323.245 310.897 323.847C312.343 324.489 314.15 323.526 314.913 321.719C315.716 319.912 315.194 317.944 313.748 317.342C312.302 316.74 310.495 317.703 309.732 319.47Z" fill="#F99893"/>
<path d="M308.929 330.111C309.411 329.348 309.813 328.505 310.134 327.662C311.058 325.333 311.58 322.883 311.821 320.715C311.861 320.233 311.981 319.791 312.062 319.35C312.423 317.502 312.463 315.535 312.102 313.487C310.857 306.942 305.395 301.882 298.769 301.24C289.855 300.356 282.265 307.183 282.024 315.936C281.1 315.374 280.016 315.214 279.092 315.615C277.285 316.378 276.563 318.828 277.486 321.116C278.45 323.405 280.659 324.61 282.506 323.887C282.747 323.767 282.988 323.646 283.188 323.485C283.751 330.914 289.694 336.817 296.962 336.897C300.536 336.937 303.789 335.572 306.319 333.283C306.48 333.163 306.64 333.002 306.841 332.801C307.644 331.998 308.327 331.075 308.929 330.111Z" fill="#FFC0BB"/>
<path d="M305.436 316.74C305.154 317.543 304.994 318.426 304.954 319.309C304.914 319.751 304.954 320.193 304.994 320.635C305.074 321.076 305.154 321.558 305.436 322L305.556 322.16L305.677 322.281C305.717 322.361 305.797 322.401 305.837 322.482C305.917 322.602 305.998 322.763 305.998 322.883C306.078 323.164 305.917 323.485 305.717 323.767C305.275 324.329 304.432 324.65 303.588 324.811C304.432 324.971 305.436 324.891 306.158 324.208C306.52 323.887 306.801 323.365 306.761 322.803C306.761 322.682 306.721 322.522 306.68 322.401C306.64 322.281 306.56 322.16 306.52 322.04C306.439 321.919 306.359 321.839 306.279 321.719C306.239 321.679 306.239 321.638 306.199 321.598L306.118 321.518C305.958 321.237 305.837 320.875 305.757 320.474C305.677 320.072 305.636 319.671 305.596 319.269C305.516 318.426 305.516 317.583 305.436 316.74Z" fill="#F99893"/>
<path d="M330.172 482.98L325.354 496.833L318.246 489.726L320.816 483.14L330.172 482.98Z" fill="#FFC0BB"/>
<path d="M300.295 318.506C300.295 319.229 299.693 319.831 298.97 319.831C298.247 319.831 297.645 319.229 297.645 318.506C297.645 317.784 298.247 317.181 298.97 317.181C299.733 317.141 300.336 317.743 300.295 318.506Z" fill="#333333"/>
<path d="M310.134 318.747C310.134 319.47 309.532 320.072 308.809 320.072C308.086 320.072 307.484 319.47 307.484 318.747C307.484 318.024 308.086 317.422 308.809 317.422C309.572 317.382 310.174 317.984 310.134 318.747Z" fill="#333333"/>
<path opacity="0.3" d="M300.135 327.3C300.135 327.3 301.942 326.658 303.628 327.782C303.628 327.782 305.476 326.618 306.921 327.742C306.921 327.742 306.239 330.472 303.227 330.272C300.215 330.071 300.135 327.3 300.135 327.3Z" fill="#F99893"/>
<path d="M298.529 326.296C298.85 326.577 299.211 326.818 299.613 327.059C299.974 327.3 300.376 327.501 300.777 327.662C301.58 328.023 302.384 328.264 303.267 328.304C304.11 328.384 304.994 328.264 305.797 328.023C306.6 327.742 307.403 327.34 308.126 326.858C307.805 327.14 307.443 327.421 307.082 327.662C306.721 327.903 306.319 328.103 305.877 328.264C305.476 328.425 305.034 328.545 304.592 328.585C304.151 328.625 303.709 328.665 303.267 328.625C302.384 328.545 301.5 328.264 300.697 327.862C299.854 327.501 299.131 326.979 298.529 326.296Z" fill="#F99893"/>
<path d="M300.817 314.531C300.135 314.33 299.492 314.21 298.85 314.129C298.207 314.049 297.605 314.049 297.003 314.17C296.4 314.29 295.798 314.411 295.236 314.692C294.914 314.812 294.673 314.973 294.352 315.133C294.071 315.294 293.79 315.495 293.469 315.655C293.629 315.334 293.79 315.053 294.031 314.732C294.272 314.491 294.513 314.17 294.794 313.969C295.356 313.487 296.079 313.206 296.802 313.085C297.525 312.965 298.288 313.045 298.97 313.286C299.733 313.607 300.336 313.969 300.817 314.531Z" fill="#333333"/>
<path d="M306.841 314.531C307.363 314.049 308.046 313.728 308.728 313.567C309.451 313.407 310.214 313.407 310.937 313.607C311.66 313.808 312.343 314.17 312.824 314.692C313.106 314.933 313.306 315.254 313.507 315.535C313.668 315.856 313.025 315.535 313.146 315.896C312.824 315.695 313.427 316.097 313.146 315.896C312.865 315.736 312.624 315.495 312.343 315.374C311.821 315.013 311.258 314.812 310.656 314.611C310.094 314.451 309.451 314.37 308.849 314.37C308.206 314.37 307.564 314.411 306.841 314.531Z" fill="#333333"/>
<path d="M307.243 371.952C307.243 371.952 304.552 379.822 304.07 384.039C302.865 394.439 305.114 403.353 307.243 409.296C310.254 417.608 284.674 412.99 284.152 412.749C283.63 412.508 262.508 404.317 262.508 404.317L260.901 388.014L258.452 371.992L259.576 362.556L307.243 371.952Z" fill="#3660AC"/>
<path d="M266.724 349.024C266.724 349.024 270.017 349.305 269.655 355.007C269.294 360.709 266.644 371.551 266.644 371.551C266.644 371.551 240.823 421.182 235.16 426C234.839 426.281 234.478 426.402 234.076 426.402L216.688 426.322C216.688 426.322 217.813 425.197 219.017 424.876L227.129 422.708C227.45 422.627 227.731 422.427 227.892 422.105L230.502 417.367L250.099 365.126C252.107 360.468 256.845 357.818 260.098 353.923C262.387 351.192 264.997 348.743 266.724 349.024Z" fill="#FFC0BB"/>
<path d="M301.902 341.394C301.661 346.333 294.714 354.605 294.714 354.605C293.469 351.835 281.341 338.423 281.221 338.262C276.241 338.343 265.68 339.065 259.215 343.683C250.541 349.867 245.32 363.68 245.32 363.68C245.32 363.68 261.062 371.591 264.957 371.992H308.608C308.608 371.992 315.274 371.47 321.699 368.218C321.659 368.178 320.655 347.659 301.902 341.394Z" fill="#3660AC"/>
<path d="M271.904 355.408C271.463 356.774 271.061 358.099 270.659 359.464C270.258 360.829 269.896 362.195 269.535 363.56C269.174 364.925 268.852 366.33 268.531 367.696C268.25 369.101 267.929 370.466 267.728 371.872L268.049 371.551C267.607 371.591 267.085 371.591 266.604 371.551C266.122 371.51 265.6 371.43 265.118 371.39C264.114 371.229 263.15 371.029 262.146 370.747L261.423 370.547L260.7 370.306C260.219 370.145 259.737 370.025 259.255 369.824L257.809 369.342L256.404 368.78C255.44 368.418 254.516 368.017 253.593 367.615L250.822 366.33L248.051 365.005C247.127 364.523 246.244 364.082 245.32 363.6C246.204 364.162 247.047 364.684 247.93 365.206C248.814 365.728 249.697 366.21 250.621 366.732C251.545 367.214 252.428 367.696 253.352 368.137L254.757 368.78C255.239 368.981 255.681 369.222 256.163 369.422C258.05 370.225 260.018 370.948 261.985 371.47L262.748 371.671L263.511 371.832C264.034 371.952 264.515 372.032 265.037 372.113C265.559 372.193 266.082 372.273 266.604 372.273C267.126 372.313 267.648 372.313 268.21 372.273L268.491 372.233L268.531 371.912C268.973 369.141 269.535 366.371 270.097 363.6L270.981 359.464L271.904 355.408Z" fill="#DAEEF7"/>
<path d="M305.114 352.236C305.717 353.842 306.279 355.449 306.801 357.095C307.283 358.741 307.725 360.388 308.006 362.034C308.166 362.877 308.287 363.72 308.327 364.523C308.407 365.367 308.407 366.21 308.407 367.053C308.327 368.74 305.837 376.65 305.114 378.216C306.158 376.811 308.849 368.86 309.05 367.134C309.251 365.407 309.13 363.64 308.809 361.913C308.648 361.07 308.447 360.227 308.206 359.384C307.966 358.54 307.684 357.737 307.363 356.934C306.761 355.248 306.038 353.682 305.114 352.236Z" fill="#DAEEF7"/>
<path d="M261.825 403.714C257.608 409.256 256.725 416.765 259.817 422.989C261.945 427.325 266.001 431.381 273.43 433.188C293.308 438.087 318.366 438.569 318.366 438.569L318.848 486.553L329.289 487.758C329.289 487.758 360.491 423.109 323.747 410.34L290.136 408.372L276.362 406.525C276.362 406.525 262.588 402.189 262.387 402.831C262.347 402.992 262.146 403.313 261.825 403.714Z" fill="#224887"/>
<path d="M323.948 439.854C323.426 439.773 322.864 439.653 322.342 439.532C321.82 439.412 321.298 439.251 320.776 439.131C320.535 439.051 320.254 438.97 320.013 438.85C320.294 438.81 320.535 438.729 320.776 438.609C321.298 438.448 321.739 438.167 322.221 437.886C322.663 437.565 323.065 437.244 323.426 436.842C323.787 436.44 324.109 436.039 324.35 435.557L323.828 436.119C323.627 436.28 323.466 436.481 323.265 436.641C322.904 437.003 322.462 437.284 322.021 437.565C321.579 437.846 321.137 438.047 320.655 438.207C320.173 438.368 319.691 438.488 319.21 438.488L318.326 438.528L319.089 438.89C319.611 439.131 320.133 439.291 320.655 439.452C321.177 439.613 321.739 439.693 322.261 439.814C322.784 439.894 323.346 439.974 323.868 440.014C324.43 440.054 324.952 440.095 325.514 440.095C325.032 440.014 324.47 439.974 323.948 439.854Z" fill="#DAEEF7"/>
<path opacity="0.8" d="M855.549 122.712C853.702 114.722 846.554 108.739 837.96 108.739C836.394 108.739 834.868 108.939 833.422 109.301C829.206 100.266 820.01 94.0019 809.368 94.0019C806.597 94.0019 803.947 94.4035 801.457 95.2066C795.715 85.7301 785.314 79.3857 773.427 79.3857C759.292 79.3857 747.245 88.3803 742.667 100.949C739.454 99.1417 735.72 98.0977 731.744 98.0977C719.336 98.0977 709.296 108.136 709.296 120.544C709.296 121.267 709.337 121.99 709.417 122.712H855.549V122.712Z" fill="white"/>
<path d="M753.068 206.997C752.907 193.625 743.39 182.181 730.258 179.571L706.566 174.873C702.831 174.151 699.458 172.062 697.089 169.051L687.893 157.406C685.363 154.194 681.548 152.347 677.452 152.347H614.967C610.911 152.347 607.056 154.234 604.526 157.406L595.37 169.091C593.001 172.103 589.668 174.151 585.893 174.913L562.201 179.612C549.069 182.222 539.552 193.666 539.391 207.037L536.62 424.755C536.5 433.911 540.516 442.624 547.503 448.487C561.157 459.931 588.343 475.872 633.6 475.671V489.204C633.6 497.114 639.985 503.499 647.896 503.499C655.807 503.499 662.192 497.114 662.192 489.204V475.671C705.401 475.109 731.584 459.69 744.916 448.527C751.943 442.664 755.919 433.951 755.798 424.796L753.068 206.997ZM646.25 166.079C652.635 166.079 657.855 171.259 657.855 177.684C657.855 184.069 652.675 189.289 646.25 189.289C639.865 189.289 634.644 184.109 634.644 177.684C634.644 171.259 639.824 166.079 646.25 166.079Z" fill="white"/>
<path d="M561.639 228.761C556.298 229.484 552.282 233.981 552.202 239.321L549.993 412.026C549.872 419.977 553.406 427.566 559.55 432.706C571.919 442.986 596.897 457.401 638.861 456.317C643.76 456.196 648.659 456.196 653.558 456.317C695.522 457.441 720.5 442.986 732.869 432.706C739.013 427.606 742.547 420.017 742.426 412.026L740.177 237.836C740.097 232.455 736.041 227.918 730.62 227.235C661.309 218.642 599.025 223.701 561.639 228.761Z" fill="#DAEEF7"/>
<path d="M732.306 295.377L646.41 308.187L560.313 286.583L560.273 286.503L558.787 403.955C558.707 411.263 561.879 418.21 567.461 422.908C578.705 432.345 601.394 445.555 639.543 444.552C644.001 444.431 648.458 444.431 652.916 444.552C691.065 445.555 713.754 432.345 724.998 422.908C730.58 418.21 733.792 411.263 733.672 403.955L732.306 295.377Z" fill="#E72C3B"/>
<path d="M560.313 286.583C560.313 286.583 633.68 307.946 677.171 283.451C720.661 258.957 758.891 293.691 708.774 319.711C657.253 346.414 560.313 286.583 560.313 286.583Z" fill="#B20B1F"/>
<path d="M627.014 330.272H570.955C568.586 330.272 566.658 328.344 566.658 325.975V269.919C566.658 267.55 568.586 265.623 570.955 265.623H627.014C629.384 265.623 631.311 267.55 631.311 269.919V325.975C631.311 328.344 629.424 330.272 627.014 330.272Z" fill="white"/>
<path opacity="0.5" d="M717.488 414.717H711.907C707.007 414.717 703.032 410.741 703.032 405.843V247.955C703.032 243.056 707.007 239.08 711.907 239.08H717.488C722.388 239.08 726.363 243.056 726.363 247.955V405.883C726.363 410.782 722.388 414.717 717.488 414.717Z" fill="white"/>
<path d="M623.601 277.709H573.846V280.681H623.601V277.709Z" fill="#B6D5E0"/>
<path d="M623.601 288.27H573.846V291.241H623.601V288.27Z" fill="#B6D5E0"/>
<path d="M623.601 298.831H573.846V301.802H623.601V298.831Z" fill="#B6D5E0"/>
<path d="M623.601 309.431H573.846V312.403H623.601V309.431Z" fill="#B6D5E0"/>
<path d="M416.992 419.897C415.747 419.816 414.824 418.692 414.864 417.447C414.984 407.65 415.185 352.959 406.832 354.445C397.677 356.051 399.243 430.297 399.685 438.488C400.126 446.64 401.13 486.272 403.178 495.267C405.226 504.302 409.724 695.638 407.395 740.21H493.452C493.452 740.21 470.723 532.571 475.381 517.111C480.039 501.652 483.533 490.89 494.616 475.19C505.699 459.449 504.214 432.947 507.707 425.398C511.201 417.809 519.353 407.208 512.366 403.996C505.378 400.783 492.407 421.182 487.187 440.697C487.187 440.697 483.854 446.078 481.364 439.372C478.874 432.666 474.538 358.541 474.216 352.999C473.935 347.458 471.285 342.8 467.39 343.242C463.454 343.683 461.727 357.376 461.286 379.782C460.844 402.189 462.049 420.419 457.23 419.535C452.411 418.652 454.579 348.743 450.805 336.977C447.03 325.172 439.601 333.323 439.721 347.618C439.882 361.873 442.05 417.528 437.553 416.925C433.055 416.323 435.224 339.588 427.353 340.31C419.241 341.073 419.201 352.999 419.201 373.358C419.201 391.989 423.458 420.298 416.992 419.897Z" fill="#FFC0BB"/>
<path d="M408.278 431.943C408.278 431.943 444.54 420.579 471.847 430.417C471.847 430.417 438.878 427.767 408.278 431.943Z" fill="#F99893"/>
<path d="M409.443 452.302C409.443 452.302 440.886 479.687 447.15 493.219C447.15 493.219 464.056 462.34 477.75 451.298C477.75 451.298 456.908 460.332 447.592 477.237C447.592 477.237 430.003 458.566 409.443 452.302Z" fill="#F99893"/>
<path d="M409.443 497.315C409.443 497.315 412.053 514.501 437.713 512.011C437.713 512.011 416.872 508.438 409.443 497.315Z" fill="#F99893"/>
<path d="M465.623 564.895H421.53C418.398 564.895 415.828 567.465 415.828 570.597V614.687C415.828 617.819 418.398 620.389 421.53 620.389H437.874V639.583C437.874 642.715 440.444 645.285 443.576 645.285C446.709 645.285 449.279 642.715 449.279 639.583V620.389H465.623C468.755 620.389 471.325 617.819 471.325 614.687V570.597C471.325 567.425 468.795 564.895 465.623 564.895Z" fill="#DAEEF7"/>
<path d="M458.314 610.43H428.919C427.192 610.43 425.827 609.065 425.827 607.338V577.945C425.827 576.219 427.192 574.853 428.919 574.853H458.314C460.041 574.853 461.406 576.219 461.406 577.945V607.338C461.406 609.025 460.001 610.43 458.314 610.43Z" fill="#EAF5F9"/>
<path opacity="0.9" d="M544.772 543.854H514.494V729.609H544.772V543.854Z" fill="white"/>
<path d="M547.664 559.875H511.603C509.996 559.875 508.711 558.59 508.711 556.983V535.983C508.711 534.376 509.996 533.092 511.603 533.092H547.664C549.27 533.092 550.555 534.376 550.555 535.983V556.983C550.595 558.59 549.27 559.875 547.664 559.875Z" fill="#FEB546"/>
<path d="M517.747 533.052H512.928V559.755H517.747V533.052Z" fill="#F4A640"/>
<path d="M527.304 533.052H522.485V559.755H527.304V533.052Z" fill="#F4A640"/>
<path d="M536.821 533.052H532.002V559.755H536.821V533.052Z" fill="#F4A640"/>
<path d="M546.379 533.052H541.56V559.755H546.379V533.052Z" fill="#F4A640"/>
<path d="M537.183 568.308H522.084C519.674 568.308 517.747 566.341 517.747 563.971V559.795H541.56V563.971C541.56 566.381 539.592 568.308 537.183 568.308Z" fill="#F4A640"/>
<path d="M541.6 729.649H517.666V630.949L527.866 634.724L541.6 630.949V729.649Z" fill="#E72C3B"/>
<path d="M517.666 630.949C517.666 630.949 528.067 634.041 534.251 630.508C540.435 626.934 545.013 630.628 538.749 635.808C532.283 641.108 517.666 630.949 517.666 630.949Z" fill="#B20B1F"/>
<path opacity="0.2" d="M523.369 727.12H521.562C520.758 727.12 520.116 726.477 520.116 725.674V565.497C520.116 564.694 520.758 564.052 521.562 564.052H523.369C524.172 564.052 524.814 564.694 524.814 565.497V725.674C524.855 726.477 524.172 727.12 523.369 727.12Z" fill="white"/>
<path opacity="0.9" d="M597.138 543.854H566.859V729.609H597.138V543.854Z" fill="white"/>
<path d="M600.029 559.876H563.968C562.361 559.876 561.076 558.591 561.076 556.984V535.984C561.076 534.377 562.361 533.092 563.968 533.092H600.029C601.635 533.092 602.92 534.377 602.92 535.984V556.984C602.92 558.591 601.635 559.876 600.029 559.876Z" fill="#FEB546"/>
<path d="M570.071 533.052H565.253V559.755H570.071V533.052Z" fill="#F4A640"/>
<path d="M579.629 533.052H574.81V559.755H579.629V533.052Z" fill="#F4A640"/>
<path d="M589.186 533.052H584.367V559.755H589.186V533.052Z" fill="#F4A640"/>
<path d="M598.704 533.052H593.885V559.755H598.704V533.052Z" fill="#F4A640"/>
<path d="M589.548 568.308H574.449C572.039 568.308 570.112 566.341 570.112 563.971V559.795H593.925V563.971C593.885 566.381 591.957 568.308 589.548 568.308Z" fill="#F4A640"/>
<path d="M593.965 729.649H570.031V630.949L580.191 634.724L593.965 630.949V729.649Z" fill="#E72C3B"/>
<path d="M570.031 630.949C570.031 630.949 580.432 634.041 586.616 630.508C592.8 626.974 597.378 630.628 591.114 635.808C584.608 641.108 570.031 630.949 570.031 630.949Z" fill="#B20B1F"/>
<path opacity="0.2" d="M575.734 727.12H573.926C573.123 727.12 572.481 726.477 572.481 725.674V565.497C572.481 564.694 573.123 564.052 573.926 564.052H575.734C576.537 564.052 577.179 564.694 577.179 565.497V725.674C577.179 726.477 576.537 727.12 575.734 727.12Z" fill="white"/>
<path opacity="0.9" d="M649.462 543.854H619.184V729.609H649.462V543.854Z" fill="white"/>
<path d="M652.354 559.876H616.292C614.686 559.876 613.401 558.591 613.401 556.984V535.984C613.401 534.377 614.686 533.092 616.292 533.092H652.354C653.96 533.092 655.245 534.377 655.245 535.984V556.984C655.245 558.591 653.96 559.876 652.354 559.876Z" fill="#FEB546"/>
<path d="M622.437 533.052H617.618V559.755H622.437V533.052Z" fill="#F4A640"/>
<path d="M631.954 533.052H627.135V559.755H631.954V533.052Z" fill="#F4A640"/>
<path d="M641.511 533.052H636.692V559.755H641.511V533.052Z" fill="#F4A640"/>
<path d="M651.069 533.052H646.25V559.755H651.069V533.052Z" fill="#F4A640"/>
<path d="M641.873 568.308H626.773C624.364 568.308 622.437 566.341 622.437 563.971V559.795H646.25V563.971C646.25 566.381 644.282 568.308 641.873 568.308Z" fill="#F4A640"/>
<path d="M646.29 729.649H622.356V630.949L632.556 634.724L646.29 630.949V729.649Z" fill="#E72C3B"/>
<path d="M622.356 630.949C622.356 630.949 632.757 634.041 638.941 630.508C645.125 626.934 649.703 630.628 643.439 635.808C636.973 641.108 622.356 630.949 622.356 630.949Z" fill="#B20B1F"/>
<path opacity="0.2" d="M628.059 727.12H626.251C625.448 727.12 624.806 726.477 624.806 725.674V565.497C624.806 564.694 625.448 564.052 626.251 564.052H628.059C628.862 564.052 629.504 564.694 629.504 565.497V725.674C629.504 726.477 628.862 727.12 628.059 727.12Z" fill="white"/>
<path d="M691.667 606.937C694.318 606.937 696.446 604.809 696.446 602.159V589.992C696.446 587.342 694.318 585.213 691.667 585.213H472.329C469.678 585.213 467.55 587.342 467.55 589.992V602.159C467.55 604.809 469.678 606.937 472.329 606.937H488.392V727.12H471.044C469.116 727.12 467.51 728.686 467.51 730.653V736.917C467.51 738.845 469.076 740.451 471.044 740.451H692.912C694.84 740.451 696.446 738.885 696.446 736.917V730.653C696.446 728.726 694.88 727.12 692.912 727.12H675.605V606.937H691.667ZM667.212 727.12H496.744V606.937H667.172V727.12H667.212Z" fill="#18196B"/>
<path d="M717.127 622.517C715.2 601.074 703.634 582.282 693.394 565.698C688.375 557.587 683.234 549.194 677.693 541.164C676.127 538.915 674.52 536.626 672.994 534.418C663.758 521.287 654.161 507.675 652.032 492.416L642.314 493.781C644.804 511.409 655.044 525.985 665.003 540.079C666.529 542.248 668.135 544.537 669.661 546.745C675.042 554.575 680.142 562.887 685.122 570.918C694.76 586.578 705.722 604.287 707.409 623.44C708.533 636.25 705.16 648.417 698.133 656.889C689.017 667.851 673.235 673.955 649.824 675.561C642.716 676.043 635.166 676.244 628.018 674.557C624.203 673.634 620.509 672.228 616.614 670.702C615.208 670.14 613.763 669.578 612.317 669.056C595.21 662.752 579.549 661.146 565.694 664.318C552.844 667.249 541.761 674.196 530.999 680.902C528.188 682.668 525.296 684.475 522.445 686.162C506.101 695.839 492.729 699.172 481.525 696.321C471.245 693.711 461.848 685.439 455.704 673.634C450.202 663.033 450.724 654.4 448.757 642.193C447.833 644.08 445.905 645.365 443.657 645.365C442.291 645.365 441.046 644.883 440.083 644.08C440.524 651.348 442.05 668.655 446.99 678.171C454.379 692.466 466.104 702.585 479.115 705.878C482.489 706.721 485.942 707.163 489.556 707.163C500.8 707.163 513.289 703.027 527.465 694.635C530.396 692.908 533.368 691.061 536.219 689.254C546.74 682.668 556.659 676.485 567.863 673.915C579.83 671.184 593.644 672.67 608.904 678.292C610.269 678.814 611.674 679.336 613.08 679.898C617.136 681.464 621.312 683.11 625.81 684.154C634.283 686.162 643.077 685.921 650.587 685.399C676.809 683.592 694.84 676.364 705.763 663.193C714.316 652.673 718.533 637.856 717.127 622.517Z" fill="white"/>
<path d="M714.436 622.758C712.589 601.958 701.185 583.446 691.105 567.103C686.126 559.032 680.945 550.64 675.484 542.649C673.958 540.401 672.352 538.112 670.786 535.943C661.349 522.532 651.59 508.678 649.342 492.777L644.965 493.38C647.334 510.325 657.413 524.66 667.171 538.473C668.697 540.682 670.304 542.93 671.83 545.139C677.251 553.049 682.391 561.361 687.33 569.432C697.129 585.334 708.252 603.363 710.019 623.119C711.224 636.611 707.61 649.541 700.14 658.535C690.543 670.1 674.119 676.525 649.944 678.171C642.635 678.653 634.845 678.894 627.295 677.087C623.32 676.123 619.344 674.597 615.529 673.112C614.124 672.549 612.678 671.987 611.273 671.465C594.688 665.322 579.508 663.756 566.176 666.807C553.768 669.658 542.885 676.444 532.324 683.07C529.513 684.837 526.581 686.644 523.73 688.37C506.744 698.409 492.689 701.862 480.762 698.851C469.719 696.08 459.679 687.286 453.214 674.798C447.753 664.237 448.475 656.006 446.789 644.281C445.865 644.923 444.781 645.284 443.576 645.284C443.175 645.284 442.813 645.244 442.452 645.164C444.219 657.17 443.576 665.803 449.279 676.846C456.346 690.458 467.43 700.055 479.678 703.147C482.81 703.95 486.063 704.352 489.476 704.352C500.238 704.352 512.285 700.336 526.019 692.225C528.95 690.499 531.882 688.651 534.693 686.885C544.933 680.5 555.494 673.875 567.18 671.184C579.669 668.333 593.965 669.859 609.747 675.681C611.152 676.204 612.558 676.766 613.963 677.288C617.939 678.814 622.035 680.42 626.332 681.464C634.403 683.391 642.635 683.15 650.265 682.628C675.685 680.902 693.113 673.955 703.554 661.427C711.786 651.508 715.762 637.414 714.436 622.758Z" fill="#E72C3B"/>
<path d="M765.275 723.707L765.035 730.091L775.074 729.609L777.443 721.779L765.275 723.707Z" fill="#FFC0BB"/>
<path d="M828.483 714.029L835.751 724.911L843.622 718.647L840.972 710.937L828.483 714.029Z" fill="#FFC0BB"/>
<path d="M831.936 740.13L850.529 726.678C851.091 726.276 851.252 725.473 850.81 724.871C850.409 724.309 849.605 724.148 849.003 724.59L830.41 738.042C829.848 738.443 829.688 739.246 830.129 739.849C830.571 740.411 831.374 740.571 831.936 740.13Z" fill="white"/>
<path d="M844.546 718.205L849.405 723.506C850.007 724.148 850.088 725.112 849.565 725.473L831.334 738.684C830.852 739.045 830.169 739.086 829.527 738.684C828.844 738.283 828.202 737.479 828.162 735.753C828.121 732.3 832.98 727.923 834.225 724.068C834.265 723.988 834.306 723.907 834.386 723.867L842.779 717.804C843.261 717.442 843.984 717.603 844.546 718.205Z" fill="#333333"/>
<path d="M838 726.357C838.081 726.196 837.96 725.915 837.759 725.794C836.836 725.272 834.306 724.148 832.338 726.196C832.217 726.316 832.258 726.557 832.418 726.718C832.579 726.879 832.78 726.919 832.86 726.798C834.627 724.991 836.836 725.995 837.599 726.437C837.759 726.517 837.96 726.477 838 726.357Z" fill="white"/>
<path d="M836.635 728.485C836.715 728.324 836.595 728.043 836.394 727.923C835.47 727.401 832.94 726.276 830.973 728.324C830.852 728.445 830.892 728.686 831.053 728.846C831.214 729.007 831.414 729.047 831.495 728.927C833.262 727.12 835.47 728.124 836.233 728.565C836.434 728.646 836.595 728.605 836.635 728.485Z" fill="white"/>
<path d="M835.39 730.452C835.47 730.292 835.35 730.011 835.149 729.89C834.225 729.368 831.696 728.244 829.728 730.292C829.607 730.412 829.647 730.653 829.808 730.814C829.969 730.974 830.17 731.015 830.25 730.894C832.017 729.087 834.225 730.091 834.988 730.533C835.189 730.613 835.35 730.573 835.39 730.452Z" fill="white"/>
<path d="M649.342 492.777C649.342 492.777 646.932 462.943 651.028 429.173C655.124 395.403 641.471 431.943 641.471 431.943C641.471 431.943 641.19 479.406 644.965 493.42C648.739 507.394 649.342 492.777 649.342 492.777Z" fill="#E72C3B"/>
<path d="M811.777 472.7C812.139 472.901 812.5 473.142 812.822 473.463C813.866 474.467 814.147 476.113 815.271 477.037C815.833 477.519 816.516 477.759 817.159 478.081C818.042 478.522 818.885 479.165 819.247 480.088C819.447 480.61 819.447 481.173 819.488 481.735C819.528 482.739 819.568 483.783 819.247 484.746C819.086 485.309 818.805 485.831 818.644 486.393C818.363 487.517 818.684 488.722 818.484 489.886C818.363 490.77 817.962 491.573 817.56 492.336C817.359 492.737 817.159 493.179 816.837 493.5C816.034 494.343 814.709 494.464 813.544 494.384C812.38 494.263 811.175 493.982 810.051 494.183C809.087 494.384 808.244 494.906 807.32 495.307C805.955 495.909 804.429 496.191 802.903 496.11C802.461 496.11 802.059 496.03 801.658 495.829C801.256 495.628 801.015 495.267 800.734 494.906C799.289 492.978 797.843 491.011 796.879 488.802C795.915 486.594 795.393 484.104 795.956 481.735C796.397 479.968 797.361 478.402 798.566 477.037C799.77 475.671 801.176 474.547 802.581 473.383C805.031 471.335 809.047 471.174 811.777 472.7Z" fill="#333333"/>
<path d="M771.941 557.828L774.592 546.384L763.709 538.232C763.709 538.232 761.822 551.885 760.898 557.346L738.932 557.747L734.716 558.551C734.716 558.551 763.99 570.798 765.838 567.063C766.36 566.019 767.926 564.453 769.452 562.686C770.215 562.887 770.737 563.008 770.737 563.008L771.46 559.956C771.861 559.273 772.182 558.591 772.383 557.908L771.941 557.828Z" fill="#FFC0BB"/>
<path d="M780.776 505.305C780.776 505.305 766.761 510.847 761.3 539.879C761.3 539.879 764.794 544.617 772.664 545.139C780.495 545.661 778.126 526.507 778.126 526.507L780.776 505.305Z" fill="#1B4B79"/>
<path d="M797.321 495.789L796.799 504.181L785.314 506.59H783.306L783.708 496.512L795.875 492.215L797.321 495.789Z" fill="#FFC0BB"/>
<path d="M779.33 509.241C778.808 514.902 781.138 515.946 781.138 515.946L798.445 503.097C787.683 504.141 780.736 505.306 780.736 505.306C780.736 505.306 779.893 509.401 779.33 509.241Z" fill="#FFC0BB"/>
<path d="M808.043 477.519C808.043 477.519 811.577 463.023 803.144 457.602C794.711 452.181 785.796 452.783 779.732 456.036C773.668 459.288 770.014 470.652 772.745 477.117L792.904 470.933L808.043 477.519Z" fill="#333333"/>
<path d="M737.045 550.239C735.037 549.355 733.551 548.472 732.989 547.588L732.347 545.902C731.543 543.814 730.339 542.89 729.576 543.292L729.455 543.412C729.455 543.412 729.977 546.825 730.379 549.596L728.652 549.315L727.729 559.916L736.041 558.792L737.045 550.239Z" fill="#FFC0BB"/>
<path d="M800.774 575.737L792.462 648.537C792.462 648.537 784.551 710.857 778.206 724.711H764.071L767.163 585.454L792.06 569.794L800.774 575.737Z" fill="#122F5B"/>
<path d="M797.562 493.58C797.562 493.58 797.321 496.03 797.12 499.082C792.743 503.86 784.591 502.214 783.507 501.772C783.587 500.246 783.507 497.154 783.507 497.154L797.562 493.58Z" fill="#F99893"/>
<path d="M807.44 568.67C807.44 568.67 823.222 589.028 819.488 621.473C815.753 653.878 816.596 665.522 816.596 665.522C816.596 665.522 836.956 684.235 843.221 711.259C843.221 711.259 834.266 717.483 828.242 718.527C828.242 718.527 798.325 672.79 796.036 667.41C793.747 661.989 779.531 577.022 779.531 577.022L807.44 568.67Z" fill="#224887"/>
<path d="M775.395 479.647C776.118 481.614 775.435 483.662 773.869 484.224C772.303 484.787 770.456 483.702 769.733 481.735C769.01 479.767 769.693 477.719 771.259 477.157C772.825 476.555 774.672 477.679 775.395 479.647Z" fill="#F99893"/>
<path d="M775.556 490.93C775.114 490.087 774.712 489.204 774.431 488.24C773.588 485.75 773.227 483.1 773.066 480.771C773.026 480.289 772.986 479.767 772.905 479.285C772.624 477.318 772.705 475.23 773.227 473.102C774.953 466.275 781.097 461.256 788.125 460.975C797.642 460.613 805.192 468.363 804.87 477.599C805.915 477.077 807.039 476.997 808.003 477.478C809.89 478.402 810.492 481.052 809.328 483.381C808.163 485.71 805.714 486.875 803.867 485.951C803.626 485.831 803.385 485.67 803.144 485.469C802.059 493.299 795.393 499.162 787.683 498.76C783.908 498.56 780.535 496.913 778.045 494.343C777.885 494.183 777.684 494.022 777.523 493.821C776.76 492.978 776.118 491.974 775.556 490.93Z" fill="#FFC0BB"/>
<path d="M790.012 479.848C789.972 480.691 790.615 481.373 791.458 481.454C792.301 481.494 792.984 480.851 793.064 480.008C793.104 479.165 792.462 478.482 791.619 478.402C790.775 478.362 790.053 479.004 790.012 479.848Z" fill="#333333"/>
<path d="M776.6 479.848C776.56 480.691 777.202 481.373 778.045 481.454C778.889 481.494 779.571 480.851 779.652 480.008C779.692 479.165 779.049 478.482 778.206 478.402C777.363 478.362 776.64 479.004 776.6 479.848Z" fill="#333333"/>
<path d="M788.727 477.318C789.41 476.956 790.133 476.675 790.856 476.515C791.578 476.354 792.341 476.274 793.064 476.354C793.426 476.394 793.787 476.475 794.148 476.555C794.309 476.595 794.51 476.675 794.671 476.715C794.751 476.756 794.831 476.796 794.911 476.836C794.992 476.876 795.072 476.916 795.152 476.956C795.835 477.278 796.478 477.719 797.08 478.161C796.638 477.519 796.036 476.997 795.353 476.595C795.032 476.394 794.63 476.193 794.269 476.073C793.867 475.953 793.506 475.872 793.104 475.832C792.301 475.752 791.498 475.872 790.735 476.153C790.374 476.274 790.012 476.475 789.651 476.675C789.33 476.836 789.008 477.037 788.727 477.318Z" fill="#333333"/>
<path d="M782.664 477.318C782.382 477.037 782.061 476.796 781.74 476.595C781.419 476.394 781.057 476.234 780.656 476.073C779.893 475.792 779.09 475.712 778.286 475.752C777.885 475.792 777.483 475.872 777.122 475.993C776.72 476.113 776.359 476.274 776.038 476.515C775.355 476.916 774.753 477.478 774.311 478.081C774.913 477.599 775.556 477.197 776.238 476.876C776.319 476.836 776.399 476.796 776.479 476.756C776.56 476.716 776.64 476.675 776.72 476.635C776.881 476.555 777.082 476.515 777.242 476.475C777.604 476.394 777.965 476.314 778.327 476.274C779.049 476.193 779.812 476.274 780.535 476.434C781.258 476.675 781.981 476.956 782.664 477.318Z" fill="#333333"/>
<path d="M817.199 528.113C816.837 527.752 816.476 527.31 816.155 526.869C815.833 526.427 815.552 525.985 815.271 525.503C814.99 525.022 814.749 524.54 814.548 524.058C814.348 523.576 814.187 523.054 813.986 522.492C814.066 523.054 814.147 523.576 814.348 524.098C814.428 524.379 814.508 524.62 814.629 524.901C814.749 525.142 814.829 525.423 814.99 525.664C815.231 526.146 815.512 526.628 815.833 527.11C816.074 527.471 816.355 527.832 816.677 528.154C816.396 528.194 816.114 528.234 815.833 528.274C815.432 528.274 815.03 528.274 814.629 528.234C814.428 528.194 814.227 528.154 814.026 528.113C813.826 528.073 813.625 527.993 813.464 527.953C813.063 527.832 812.741 527.632 812.38 527.431C812.701 527.672 813.022 527.953 813.424 528.113C813.785 528.314 814.187 528.435 814.589 528.515C814.99 528.595 815.432 528.635 815.833 528.635C816.275 528.635 816.677 528.595 817.078 528.475L817.399 528.395L817.199 528.113Z" fill="white"/>
<path d="M784.43 479.165C783.989 479.848 783.627 480.57 783.306 481.293C782.985 482.016 782.704 482.779 782.463 483.582C782.342 483.983 782.262 484.385 782.222 484.827C782.222 484.947 782.222 485.027 782.222 485.148C782.222 485.188 782.262 485.268 782.262 485.349C782.302 485.429 782.302 485.469 782.342 485.549C782.382 485.59 782.382 485.63 782.423 485.63L782.503 485.67C782.543 485.71 782.583 485.75 782.623 485.79C782.704 485.871 782.784 485.911 782.904 485.951C783.266 486.152 783.627 486.312 784.029 486.473C784.43 486.593 784.792 486.714 785.193 486.794C784.471 486.433 783.748 486.112 783.105 485.67C783.025 485.63 782.945 485.549 782.904 485.509L782.824 485.429L782.784 485.389C782.784 485.389 782.784 485.389 782.784 485.349C782.744 485.268 782.744 485.068 782.744 484.907C782.784 484.546 782.864 484.144 782.985 483.783C783.186 483.02 783.467 482.257 783.708 481.534C783.908 480.691 784.189 479.928 784.43 479.165Z" fill="#F99893"/>
<path d="M814.428 552.086C816.476 540.642 817.359 528.314 817.359 528.314C817.48 525.463 817.44 522.974 817.279 520.765C814.428 518.436 810.412 515.103 810.412 515.103L803.585 503.459C800.975 503.218 798.244 503.097 798.244 503.097L781.138 515.947L780.736 505.306C780.656 505.386 780.575 505.426 780.495 505.506C773.106 511.53 768.327 520.243 767.283 529.84C766.56 536.586 766.641 543.814 767.042 550.239C767.042 550.239 764.111 587.542 762.705 593.485C762.705 593.485 801.417 597.34 822.098 593.485C822.178 593.525 814.267 568.348 814.428 552.086Z" fill="#3660AC"/>
<path d="M764.753 581.559L735.117 583.326C733.23 583.446 731.182 582.242 730.499 580.636L714.918 544.577C714.236 542.971 715.199 541.605 717.047 541.485L746.683 539.718C748.57 539.598 750.618 540.802 751.301 542.408L766.882 578.467C767.605 580.073 766.641 581.479 764.753 581.559Z" fill="#333333"/>
<path d="M737.928 542.087L727.849 542.689C727.046 542.73 726.162 542.208 725.841 541.525L725.56 540.883C725.279 540.2 725.68 539.598 726.484 539.557L736.563 538.955C737.366 538.915 738.25 539.437 738.571 540.12L738.852 540.762C739.133 541.445 738.732 542.047 737.928 542.087Z" fill="#C8EEF1"/>
<path d="M726.885 572.364L726.765 572.404C726.002 572.725 725.158 572.444 724.717 571.721L720.059 563.65C719.818 563.249 719.818 562.767 720.099 562.405C720.902 561.241 722.588 558.832 723.151 558.912C723.914 559.032 721.585 563.048 721.906 563.128C722.227 563.209 725.52 560.558 725.801 560.96C726.042 561.361 723.151 564.453 723.271 564.694C723.392 564.935 726.765 563.008 727.126 563.329C727.447 563.65 724.315 566.14 724.355 566.341L726.885 572.364Z" fill="#FFC0BB"/>
<path d="M753.509 581.68C753.55 581.117 758.248 577.584 757.967 577.303C757.686 577.062 752.465 580.194 752.064 579.471C751.662 578.748 757.525 575.496 757.003 575.054C756.481 574.612 750.538 578.066 750.297 577.383C750.096 576.781 756.642 572.725 758.69 571.44C758.971 571.28 758.931 570.878 758.649 570.758C754.272 568.71 754.031 568.268 754.393 567.826C754.634 567.505 759.011 568.067 763.107 568.348L768.127 568.83C769.532 568.509 811.537 558.591 813.826 555.82C816.155 553.009 809.89 537.871 809.89 537.871L823.544 532.008C823.544 532.008 829.768 556.864 823.784 564.493C820.532 568.629 768.408 575.978 768.408 575.978C767.564 576.62 765.356 578.106 765.356 578.106C756.24 583.888 757.284 583.446 757.003 583.165C756.722 582.884 759.814 579.431 759.372 579.23C758.971 579.07 753.509 582.242 753.509 581.68Z" fill="#FFC0BB"/>
<path d="M803.585 503.459C803.585 503.459 818.845 509.241 828.523 531.727C828.523 531.727 823.784 542.208 808.043 542.569L803.585 503.459Z" fill="#3660AC"/>
<path d="M828.563 531.727C827.519 533.454 826.154 534.98 824.628 536.265C823.102 537.55 821.415 538.634 819.608 539.477C817.801 540.28 815.914 540.963 813.986 541.364C813.022 541.605 812.018 541.686 811.055 541.886C810.051 541.967 809.087 542.047 808.083 542.127L808.605 542.529C808.123 540.521 807.521 538.594 806.919 536.626C806.316 534.699 805.674 532.731 804.911 530.844C804.148 528.957 803.304 527.069 802.341 525.262C801.337 523.496 800.252 521.689 798.686 520.363C800.092 521.849 801.056 523.656 801.899 525.503C802.742 527.35 803.505 529.197 804.148 531.125C804.79 533.052 805.433 534.98 805.995 536.907C806.557 538.835 807.079 540.802 807.561 542.77L807.681 543.211L808.083 543.171C809.087 543.091 810.131 543.011 811.135 542.89C812.139 542.689 813.183 542.609 814.147 542.328C815.151 542.087 816.155 541.846 817.078 541.445C818.082 541.164 818.966 540.642 819.889 540.24C821.696 539.276 823.383 538.112 824.869 536.706C826.395 535.181 827.72 533.574 828.563 531.727Z" fill="#FBF9EB"/>
<path d="M724.155 566.461C724.155 566.461 727.488 565.457 727.809 565.819C728.09 566.18 724.155 568.348 724.155 568.228C724.155 568.147 724.155 566.461 724.155 566.461Z" fill="#FFC0BB"/>
<path d="M806.959 475.511L806.597 475.471L806.356 472.339L804.951 469.447C804.951 469.447 799.449 461.617 799.249 461.416C799.048 461.216 794.871 458.686 794.59 458.566C794.349 458.445 788.446 459.409 788.446 459.409C788.446 459.409 778.086 457.2 779.853 462.982C781.62 468.765 789.169 471.776 789.571 471.535C788.326 470.25 788.205 466.556 788.205 466.556C794.028 473.262 804.951 477.719 804.951 477.719C804.951 477.719 806.115 476.836 808.083 477.599L806.959 475.511Z" fill="#333333"/>
<path d="M781.057 489.123C781.459 490.89 783.186 492.215 785.234 492.215C787.282 492.175 788.968 490.81 789.289 489.003L781.057 489.123Z" fill="white"/>
<path d="M277.406 614.325H270.419V595.854C270.419 591.196 266.644 587.422 261.985 587.422H192.353C187.695 587.422 183.92 591.196 183.92 595.854V614.325H176.933V595.854C176.933 587.342 183.84 580.435 192.353 580.435H261.985C270.499 580.435 277.406 587.342 277.406 595.854V614.325Z" fill="#55769F"/>
<path d="M189.783 612.358H171.07V610.792C171.07 608.744 172.716 607.097 174.764 607.097H186.048C188.096 607.097 189.743 608.744 189.743 610.792V612.358H189.783Z" fill="#224887"/>
<path d="M283.269 612.358H264.556V610.792C264.556 608.744 266.202 607.097 268.25 607.097H279.534C281.582 607.097 283.229 608.744 283.229 610.792V612.358H283.269Z" fill="#224887"/>
<path d="M300.135 740.25H150.549C145.008 740.25 140.51 735.753 140.51 730.211V622.396C140.51 616.855 145.008 612.358 150.549 612.358H300.135C305.677 612.358 310.174 616.855 310.174 622.396V730.252C310.134 735.753 305.677 740.25 300.135 740.25Z" fill="#FEB546"/>
<path d="M192.393 612.358H168.459V740.25H192.393V612.358Z" fill="#F4A640"/>
<path d="M285.919 612.358H261.986V740.25H285.919V612.358Z" fill="#F4A640"/>
<path d="M251.103 669.98H233.514V652.392H220.864V669.98H203.276V682.628H220.864V700.216H233.514V682.628H251.103V669.98Z" fill="white"/>
<path d="M282.024 315.896C282.024 315.896 294.111 311.64 301.942 302.766C301.942 302.766 307.724 310.757 311.7 311.881C311.7 311.881 312.061 299.192 298.97 297.425C285.919 295.658 279.133 305.858 282.024 315.896Z" fill="#333333"/>
<path opacity="0.5" d="M892.734 135.16C888.638 117.332 881.45 100.346 871.853 84.8065C858.4 84.3648 844.907 84.4451 831.454 85.0073C823.945 85.3285 816.275 85.8104 809.087 83.642C801.899 81.4737 795.152 76.0528 793.787 68.6644C792.984 64.2875 793.827 59.1076 790.695 55.9354C789.048 54.289 786.639 53.6465 784.35 53.0844C773.99 50.5145 763.428 47.9446 752.787 48.4264C730.62 49.4303 706.325 63.0427 688.053 50.4743C680.062 45.0133 675.524 34.9345 676.649 25.3375C677.773 15.7406 684.6 7.02705 693.635 3.57375C708.855 -2.24866 727.889 6.06334 742.346 1.16448C692.27 -4.49732 641.27 10.9622 595.892 33.6094C590.632 36.2194 585.411 38.95 580.231 41.7608C580.753 48.828 586.134 55.2527 592.6 58.5856C600.069 62.4002 608.703 62.9624 617.095 63.4041C626.452 63.9261 635.809 64.4481 645.205 65.0103C648.418 65.2111 652.072 65.5725 654.12 68.062C656.811 71.3146 655.365 76.093 655.566 80.3092C655.968 87.9386 662.433 94.1625 669.621 96.6923C676.809 99.222 684.68 98.8606 692.31 98.4591C706.726 97.6961 721.143 96.893 735.519 96.1301C740.298 95.8892 745.357 95.6884 749.494 98.0575C752.626 99.8645 754.794 102.916 757.043 105.727C776.479 129.98 808.324 140.902 839.205 144.396C857.677 146.484 876.31 146.364 894.943 146.524C894.341 142.709 893.618 138.935 892.734 135.16Z" fill="white"/>
<path d="M382.537 287.748L373.221 270.642L363.904 287.748C363.904 287.748 343.304 326.015 349.93 342.358C350.01 342.519 350.05 342.679 350.131 342.84C358.804 363.239 387.637 363.239 396.311 342.84C396.392 342.679 396.432 342.519 396.512 342.358C403.138 326.015 382.537 287.748 382.537 287.748Z" fill="#B20B1F"/>
<path d="M373.221 270.602L363.904 287.708C363.904 287.708 346.757 319.59 348.765 337.58C360.612 349.144 382.055 346.374 389.324 329.308C389.404 329.147 389.444 328.987 389.525 328.826C394.263 317.101 385.027 294.092 379.405 282.046L373.221 270.602Z" fill="#E72C3B"/>
<path d="M408.278 294.775C406.993 295.859 405.788 296.983 404.584 298.108C402.214 300.397 399.925 302.766 397.757 305.215C395.588 307.665 393.5 310.194 391.492 312.764C390.127 314.531 388.802 316.298 387.557 318.105L386.593 317.342C385.951 316.86 385.308 316.378 384.666 315.896C384.023 315.414 383.381 314.933 382.698 314.491C381.373 313.567 380.048 312.644 378.682 311.76C377.317 310.877 375.911 310.034 374.426 309.311C375.229 310.756 376.112 312.162 377.036 313.487C377.959 314.852 378.923 316.137 379.887 317.422C380.369 318.065 380.891 318.707 381.373 319.309C381.895 319.912 382.377 320.554 382.899 321.157L384.465 323.004L386.071 324.811L388.2 327.22L390.649 324.489C392.818 322.04 394.906 319.55 396.914 316.98C398.922 314.411 400.849 311.76 402.696 309.07C404.543 306.339 406.27 303.569 407.877 300.718C408.68 299.272 409.483 297.827 410.206 296.341C410.928 294.855 411.651 293.329 412.254 291.723C410.848 292.647 409.563 293.691 408.278 294.775Z" fill="white"/>
<path opacity="0.8" d="M349.488 250.123C348.163 244.381 343.023 240.125 336.919 240.125C335.794 240.125 334.71 240.285 333.666 240.526C330.654 234.061 324.069 229.564 316.439 229.564C314.471 229.564 312.584 229.845 310.776 230.407C306.68 223.621 299.211 219.084 290.738 219.084C280.618 219.084 271.985 225.508 268.732 234.503C266.403 233.218 263.752 232.495 260.901 232.495C252.027 232.495 244.838 239.683 244.838 248.557C244.838 249.079 244.879 249.601 244.919 250.123H349.488Z" fill="white"/>
<path opacity="0.8" d="M551.278 147.97C550.194 143.312 546.017 139.818 541.038 139.818C540.114 139.818 539.231 139.939 538.387 140.14C535.938 134.879 530.597 131.225 524.373 131.225C522.766 131.225 521.24 131.466 519.755 131.908C516.421 126.367 510.358 122.712 503.451 122.712C495.218 122.712 488.191 127.933 485.541 135.241C483.653 134.197 481.485 133.594 479.196 133.594C471.967 133.594 466.145 139.457 466.145 146.645C466.145 147.086 466.185 147.488 466.225 147.93H551.278V147.97Z" fill="white"/>
<path d="M85.4946 731.617C87.1009 733.183 88.4662 736.315 89.9119 739.608C91.0764 742.298 92.3615 745.149 94.0079 748H136.615C135.45 747.277 134.286 746.595 133.041 745.992C130.27 744.587 127.499 743.503 125.009 742.539C121.355 741.134 117.942 739.768 116.175 738.002C114.568 736.395 113.203 733.303 111.798 730.051C109.709 725.273 107.099 719.289 102.12 714.431C95.3733 707.886 86.7796 705.677 79.8324 703.91C75.0136 702.665 70.4357 701.501 68.3073 699.373C67.1428 698.208 65.9782 696.04 64.7735 693.751C64.0105 692.306 63.2074 690.82 62.2436 689.254C54.4129 676.404 40.8398 667.41 25.9415 665.161C25.0982 665.041 24.295 664.92 23.5321 664.84C22.3273 664.679 11.0432 662.39 7.26839 664.96C0.200722 669.819 0.441665 680.42 7.83059 684.797C8.67389 685.279 9.55735 685.76 10.5211 686.162C14.2156 687.768 17.7494 688.21 20.5604 688.571C21.2029 688.652 21.8053 688.732 22.3273 688.812C30.1981 690.017 37.6272 694.956 41.7634 701.742C42.3658 702.746 42.9681 703.87 43.6106 705.075C43.8114 705.436 44.0122 705.838 44.2532 706.239L54.7743 706.601L47.1846 711.178C48.3492 712.905 49.6744 714.632 51.2807 716.238C58.0672 723.064 66.8215 725.313 73.849 727.079C78.7482 728.324 83.286 729.489 85.4946 731.617Z" fill="#9CDEDC"/>
<path d="M91.4379 694.715C93.0843 697.164 94.008 701.501 94.9717 706.079C96.4174 712.905 98.0638 720.655 102.883 728.043C108.264 736.235 115.894 741.174 122.038 745.149C123.523 746.113 124.969 747.076 126.334 748H165.929C161.874 739.327 155.85 731.577 148.341 725.554C145.208 723.024 141.915 720.896 139.024 719.049C134.768 716.278 130.712 713.668 128.945 710.937C127.338 708.448 126.415 704.191 125.451 699.654C124.046 692.988 122.319 684.716 117.219 677.208C110.352 667.048 99.9512 661.989 91.5985 657.933C85.7757 655.082 80.234 652.392 78.1057 649.099C76.9411 647.333 76.0175 644.281 75.0939 641.028C74.4916 638.98 73.849 636.892 73.0459 634.644C69.3514 624.364 63.1271 615.169 55.1358 607.861L47.9878 619.104L51.1201 604.447C45.6988 600.191 39.6351 596.738 33.1296 594.369C32.0856 593.967 31.1218 593.646 30.158 593.325C28.632 592.803 14.8581 586.9 9.39675 589.189C1.84719 592.361 -1.48585 600.512 0.522006 607.58L14.6975 608.784L3.93537 613.683C4.21647 614.004 4.53772 614.325 4.89914 614.647C5.86291 615.49 6.86684 616.333 7.95109 617.096C12.2479 620.148 16.625 621.634 20.1187 622.798C20.9219 623.079 21.6447 623.32 22.3274 623.561C32.0052 627.135 40.1973 635.407 43.691 645.124C44.213 646.529 44.6949 648.136 45.1768 649.862C45.9799 652.512 46.8634 655.564 48.1484 658.696L64.1712 661.788L50.7587 664.157C51.1201 664.84 51.5216 665.482 51.9634 666.125C58.8303 676.605 69.3916 681.745 77.9049 685.921C83.7679 688.772 89.2292 691.422 91.4379 694.715Z" fill="#8FD0D6"/>
<path d="M79.4711 603.564C79.1498 608.664 78.7884 614.887 79.9529 621.473C88.1852 626.131 104.288 635.166 102.441 634.202C100.714 633.278 88.8678 630.548 81.9206 628.982C86.0568 640.667 94.2891 649.18 101.076 656.166C106.296 661.587 111.235 666.687 112.4 671.184C113.243 674.517 112.52 679.657 111.757 685.078C110.593 693.149 109.308 702.304 111.677 712.383C114.328 723.506 120.712 731.978 125.853 738.805C127.941 741.575 129.949 744.225 131.434 746.675C131.716 747.117 131.957 747.598 132.238 748.04H170.949C169.182 740.933 166.331 734.066 162.516 727.762C160.067 723.747 157.336 720.093 154.886 716.88C151.312 712.142 147.939 707.645 147.056 703.991C146.252 700.618 146.975 695.558 147.738 690.177C148.863 682.307 150.228 672.55 147.618 662.27C144.084 648.376 134.727 638.699 127.178 630.909C121.917 625.448 116.938 620.308 115.894 615.851C115.331 613.442 115.532 609.708 115.773 605.772C115.934 603.283 116.094 600.713 116.094 597.942C116.175 576.58 107.139 555.539 91.6788 540.802L84.571 543.934L88.0647 537.59C87.1812 536.827 86.3379 536.144 85.4946 535.502C84.049 534.337 71.279 522.371 64.372 522.693C51.361 523.335 43.2493 537.269 49.313 548.793C49.9957 550.118 50.7988 551.443 51.6823 552.728C55.176 557.788 59.3925 561.12 62.7657 563.851C63.5287 564.453 64.2515 565.056 64.894 565.578C74.09 573.368 79.7923 585.695 79.7522 597.782C79.712 599.548 79.5915 601.516 79.4711 603.564Z" fill="#74BDC1"/>
<path d="M974.414 740.21H63.4885V748H974.414V740.21Z" fill="#082948"/>
<path opacity="0.8" d="M944.377 327.099C942.891 327.38 941.485 327.742 940.08 328.184C931.607 314.129 916.186 304.733 898.597 304.733C877.635 304.733 859.806 318.025 853.059 336.656C848.28 334.006 842.779 332.48 836.916 332.48C818.564 332.48 803.666 347.377 803.666 365.728C803.666 366.812 803.706 367.896 803.826 368.94H967.427C960.881 354.445 952.448 340.872 944.377 327.099Z" fill="white"/>
<path d="M859.926 229.765H841.614V214.907H826.756V196.597H841.614V181.74H859.926V196.597H874.784V214.907H859.926V229.765ZM844.064 227.315H857.476V212.458H872.335V199.046H857.476V184.189H844.064V199.046H829.206V212.458H844.064V227.315Z" fill="#74BDC1"/>
<path d="M934.136 475.31H922.17V465.593H912.452V453.627H922.17V443.909H934.136V453.627H943.854V465.593H934.136V475.31ZM923.776 473.704H932.53V463.987H942.248V455.233H932.53V445.515H923.776V455.233H914.058V463.987H923.776V473.704Z" fill="#74BDC1"/>
<path d="M197.132 354.886H187.614V347.177H179.904V337.7H187.614V329.991H197.132V337.7H204.842V347.217H197.132V354.886ZM188.899 353.642H195.847V345.932H203.597V338.985H195.887V331.275H188.94V338.985H181.229V345.932H188.94V353.642H188.899Z" fill="#74BDC1"/>
<path d="M171.632 536.867H165.327V531.727H160.187V525.423H165.327V520.283H171.632V525.423H176.772V531.727H171.632V536.867ZM166.17 536.024H170.788V530.884H175.888V526.266H170.748V521.126H166.13V526.266H160.99V530.884H166.13V536.024H166.17Z" fill="#74BDC1"/>
<path d="M622.356 105.486H612.839V97.7764H605.129V88.2598H612.839V80.5501H622.356V88.2598H630.066V97.7764H622.356V105.486ZM614.124 104.201H621.071V96.4915H628.781V89.5447H621.071V81.8351H614.124V89.5447H606.414V96.4915H614.124V104.201Z" fill="#74BDC1"/>
<path d="M826.435 409.175C821.977 409.175 818.403 405.562 818.403 401.145C818.403 396.687 822.018 393.114 826.435 393.114C830.892 393.114 834.466 396.727 834.466 401.145C834.466 405.562 830.852 409.175 826.435 409.175ZM826.435 395.121C823.142 395.121 820.411 397.812 820.411 401.145C820.411 404.437 823.102 407.168 826.435 407.168C829.768 407.168 832.458 404.477 832.458 401.145C832.418 397.812 829.728 395.121 826.435 395.121Z" fill="#9CDEDC"/>
<path d="M742.466 46.8604C738.009 46.8604 734.435 43.2465 734.435 38.8295C734.435 34.3723 738.049 30.7986 742.466 30.7986C746.924 30.7986 750.498 34.4125 750.498 38.8295C750.538 43.2465 746.924 46.8604 742.466 46.8604ZM742.466 32.8063C739.173 32.8063 736.443 35.4967 736.443 38.8295C736.443 42.1222 739.133 44.8527 742.466 44.8527C745.759 44.8527 748.49 42.1623 748.49 38.8295C748.49 35.4967 745.799 32.8063 742.466 32.8063Z" fill="#9CDEDC"/>
<path d="M461.045 190.413C456.708 190.413 453.214 186.88 453.214 182.583C453.214 178.286 456.748 174.753 461.045 174.753C465.342 174.753 468.875 178.286 468.875 182.583C468.875 186.88 465.342 190.413 461.045 190.413ZM461.045 176.761C457.832 176.761 455.182 179.371 455.182 182.623C455.182 185.835 457.792 188.486 461.045 188.486C464.257 188.486 466.908 185.876 466.908 182.623C466.867 179.371 464.257 176.761 461.045 176.761Z" fill="#8FD0D6"/>
<path d="M99.911 505.225C94.8512 505.225 90.7552 501.129 90.7552 496.07C90.7552 491.01 94.8512 486.915 99.911 486.915C104.971 486.915 109.067 491.01 109.067 496.07C109.067 501.129 104.971 505.225 99.911 505.225ZM99.911 489.204C96.1363 489.204 93.0843 492.255 93.0843 496.03C93.0843 499.804 96.1363 502.856 99.911 502.856C103.686 502.856 106.738 499.804 106.738 496.03C106.738 492.295 103.686 489.204 99.911 489.204Z" fill="#74BDC1"/>
<path d="M753.028 740.21L775.997 740.13C776.72 740.13 777.282 739.568 777.282 738.845C777.282 738.122 776.72 737.56 775.997 737.56L753.028 737.64C752.305 737.64 751.743 738.202 751.743 738.925C751.743 739.648 752.345 740.21 753.028 740.21Z" fill="white"/>
<path d="M776.078 729.77L776.961 736.917C777.082 737.801 776.56 738.604 775.917 738.604L753.429 738.684C752.827 738.684 752.265 738.323 751.943 737.64C751.622 736.958 751.542 735.873 752.546 734.468C754.514 731.657 761.019 730.934 764.312 728.525C764.392 728.485 764.472 728.445 764.553 728.445L774.913 728.405C775.475 728.405 775.957 728.967 776.078 729.77Z" fill="#333333"/>
<path d="M765.998 732.581C766.159 732.46 766.199 732.219 766.119 731.978C765.677 731.015 764.272 728.605 761.501 729.127C761.34 729.167 761.22 729.368 761.26 729.609C761.3 729.81 761.42 729.971 761.581 729.93C764.111 729.489 765.276 731.577 765.637 732.42C765.717 732.581 765.878 732.661 765.998 732.581Z" fill="white"/>
<path d="M763.669 733.504C763.83 733.384 763.87 733.143 763.79 732.902C763.348 731.938 761.943 729.529 759.131 730.051C758.971 730.091 758.85 730.292 758.891 730.533C758.931 730.734 759.051 730.894 759.212 730.854C761.742 730.412 762.906 732.5 763.268 733.344C763.388 733.504 763.549 733.585 763.669 733.504Z" fill="white"/>
<path d="M761.501 734.347C761.661 734.227 761.701 733.986 761.621 733.745C761.179 732.781 759.774 730.372 756.963 730.894C756.802 730.934 756.682 731.135 756.722 731.376C756.762 731.577 756.883 731.737 757.043 731.697C759.573 731.256 760.738 733.344 761.099 734.187C761.22 734.388 761.38 734.428 761.501 734.347Z" fill="white"/>
<path d="M327.442 512.373L310.495 496.913C309.973 496.431 309.933 495.628 310.415 495.106C310.897 494.584 311.7 494.544 312.222 495.026L329.168 510.485C329.69 510.967 329.731 511.77 329.249 512.292C328.807 512.814 327.964 512.855 327.442 512.373Z" fill="#122F5B"/>
<path d="M317.402 489.163L311.981 493.862C311.299 494.424 311.138 495.347 311.62 495.789L328.245 510.927C328.687 511.329 329.329 511.449 330.052 511.128C330.775 510.807 331.538 510.084 331.739 508.357C332.18 504.944 327.843 500.045 327.04 496.07C327.04 495.99 327 495.909 326.92 495.869L319.29 488.882C318.768 488.521 318.005 488.641 317.402 489.163Z" fill="#55769F"/>
<path d="M322.984 497.997C322.944 497.797 323.065 497.556 323.265 497.475C324.269 497.034 326.879 496.23 328.606 498.479C328.727 498.6 328.646 498.841 328.486 499.001C328.325 499.162 328.124 499.162 328.004 499.041C326.438 497.034 324.149 497.797 323.346 498.158C323.185 498.198 323.024 498.158 322.984 497.997Z" fill="white"/>
<path d="M324.069 500.246C324.028 500.045 324.149 499.804 324.35 499.724C325.354 499.282 327.964 498.479 329.69 500.728C329.811 500.848 329.731 501.089 329.57 501.25C329.409 501.411 329.209 501.411 329.088 501.29C327.522 499.282 325.233 500.045 324.43 500.407C324.269 500.447 324.109 500.407 324.069 500.246Z" fill="white"/>
<path d="M325.112 502.334C325.072 502.133 325.193 501.892 325.394 501.812C326.398 501.37 329.008 500.567 330.735 502.816C330.855 502.936 330.775 503.177 330.614 503.338C330.453 503.499 330.253 503.499 330.132 503.378C328.566 501.37 326.277 502.133 325.474 502.495C325.313 502.535 325.153 502.495 325.112 502.334Z" fill="white"/>
</g>
<defs>
<clipPath id="clip0">
<rect width="981" height="748" fill="white"/>
</clipPath>
</defs>
</svg>
